<?xml version="1.0" encoding="utf-8" standalone="no"?>
<!DOCTYPE svg PUBLIC "-//W3C//DTD SVG 1.1//EN"
  "http://www.w3.org/Graphics/SVG/1.1/DTD/svg11.dtd">
<svg xmlns:xlink="http://www.w3.org/1999/xlink" width="864pt" height="360pt" viewBox="0 0 864 360" xmlns="http://www.w3.org/2000/svg" version="1.1">
 <metadata>
  <rdf:RDF xmlns:dc="http://purl.org/dc/elements/1.1/" xmlns:cc="http://creativecommons.org/ns#" xmlns:rdf="http://www.w3.org/1999/02/22-rdf-syntax-ns#">
   <cc:Work>
    <dc:type rdf:resource="http://purl.org/dc/dcmitype/StillImage"/>
    <dc:date>2023-09-25T15:00:48.410161</dc:date>
    <dc:format>image/svg+xml</dc:format>
    <dc:creator>
     <cc:Agent>
      <dc:title>Matplotlib v3.8.0, https://matplotlib.org/</dc:title>
     </cc:Agent>
    </dc:creator>
   </cc:Work>
  </rdf:RDF>
 </metadata>
 <defs>
  <style type="text/css">*{stroke-linejoin: round; stroke-linecap: butt}</style>
 </defs>
 <g id="figure_1">
  <g id="patch_1">
   <path d="M 0 360 
L 864 360 
L 864 0 
L 0 0 
z
" style="fill: #ffffff"/>
  </g>
  <g id="axes_1">
   <g id="patch_2">
    <path d="M 108 320.4 
L 412.363636 320.4 
L 412.363636 43.2 
L 108 43.2 
z
" style="fill: #ffffff"/>
   </g>
   <g id="matplotlib.axis_1">
    <g id="xtick_1">
     <g id="line2d_1">
      <defs>
       <path id="m4252dd7f53" d="M 0 0 
L 0 3.5 
" style="stroke: #000000; stroke-width: 0.8"/>
      </defs>
      <g>
       <use xlink:href="#m4252dd7f53" x="108" y="320.4" style="stroke: #000000; stroke-width: 0.8"/>
      </g>
     </g>
     <g id="text_1">
      <!-- 0.0 -->
      <g transform="translate(100.048438 334.998438) scale(0.1 -0.1)">
       <defs>
        <path id="DejaVuSans-30" d="M 2034 4250 
Q 1547 4250 1301 3770 
Q 1056 3291 1056 2328 
Q 1056 1369 1301 889 
Q 1547 409 2034 409 
Q 2525 409 2770 889 
Q 3016 1369 3016 2328 
Q 3016 3291 2770 3770 
Q 2525 4250 2034 4250 
z
M 2034 4750 
Q 2819 4750 3233 4129 
Q 3647 3509 3647 2328 
Q 3647 1150 3233 529 
Q 2819 -91 2034 -91 
Q 1250 -91 836 529 
Q 422 1150 422 2328 
Q 422 3509 836 4129 
Q 1250 4750 2034 4750 
z
" transform="scale(0.015625)"/>
        <path id="DejaVuSans-2e" d="M 684 794 
L 1344 794 
L 1344 0 
L 684 0 
L 684 794 
z
" transform="scale(0.015625)"/>
       </defs>
       <use xlink:href="#DejaVuSans-30"/>
       <use xlink:href="#DejaVuSans-2e" x="63.623047"/>
       <use xlink:href="#DejaVuSans-30" x="95.410156"/>
      </g>
     </g>
    </g>
    <g id="xtick_2">
     <g id="line2d_2">
      <g>
       <use xlink:href="#m4252dd7f53" x="168.872727" y="320.4" style="stroke: #000000; stroke-width: 0.8"/>
      </g>
     </g>
     <g id="text_2">
      <!-- 0.2 -->
      <g transform="translate(160.921165 334.998438) scale(0.1 -0.1)">
       <defs>
        <path id="DejaVuSans-32" d="M 1228 531 
L 3431 531 
L 3431 0 
L 469 0 
L 469 531 
Q 828 903 1448 1529 
Q 2069 2156 2228 2338 
Q 2531 2678 2651 2914 
Q 2772 3150 2772 3378 
Q 2772 3750 2511 3984 
Q 2250 4219 1831 4219 
Q 1534 4219 1204 4116 
Q 875 4013 500 3803 
L 500 4441 
Q 881 4594 1212 4672 
Q 1544 4750 1819 4750 
Q 2544 4750 2975 4387 
Q 3406 4025 3406 3419 
Q 3406 3131 3298 2873 
Q 3191 2616 2906 2266 
Q 2828 2175 2409 1742 
Q 1991 1309 1228 531 
z
" transform="scale(0.015625)"/>
       </defs>
       <use xlink:href="#DejaVuSans-30"/>
       <use xlink:href="#DejaVuSans-2e" x="63.623047"/>
       <use xlink:href="#DejaVuSans-32" x="95.410156"/>
      </g>
     </g>
    </g>
    <g id="xtick_3">
     <g id="line2d_3">
      <g>
       <use xlink:href="#m4252dd7f53" x="229.745455" y="320.4" style="stroke: #000000; stroke-width: 0.8"/>
      </g>
     </g>
     <g id="text_3">
      <!-- 0.4 -->
      <g transform="translate(221.793892 334.998438) scale(0.1 -0.1)">
       <defs>
        <path id="DejaVuSans-34" d="M 2419 4116 
L 825 1625 
L 2419 1625 
L 2419 4116 
z
M 2253 4666 
L 3047 4666 
L 3047 1625 
L 3713 1625 
L 3713 1100 
L 3047 1100 
L 3047 0 
L 2419 0 
L 2419 1100 
L 313 1100 
L 313 1709 
L 2253 4666 
z
" transform="scale(0.015625)"/>
       </defs>
       <use xlink:href="#DejaVuSans-30"/>
       <use xlink:href="#DejaVuSans-2e" x="63.623047"/>
       <use xlink:href="#DejaVuSans-34" x="95.410156"/>
      </g>
     </g>
    </g>
    <g id="xtick_4">
     <g id="line2d_4">
      <g>
       <use xlink:href="#m4252dd7f53" x="290.618182" y="320.4" style="stroke: #000000; stroke-width: 0.8"/>
      </g>
     </g>
     <g id="text_4">
      <!-- 0.6 -->
      <g transform="translate(282.666619 334.998438) scale(0.1 -0.1)">
       <defs>
        <path id="DejaVuSans-36" d="M 2113 2584 
Q 1688 2584 1439 2293 
Q 1191 2003 1191 1497 
Q 1191 994 1439 701 
Q 1688 409 2113 409 
Q 2538 409 2786 701 
Q 3034 994 3034 1497 
Q 3034 2003 2786 2293 
Q 2538 2584 2113 2584 
z
M 3366 4563 
L 3366 3988 
Q 3128 4100 2886 4159 
Q 2644 4219 2406 4219 
Q 1781 4219 1451 3797 
Q 1122 3375 1075 2522 
Q 1259 2794 1537 2939 
Q 1816 3084 2150 3084 
Q 2853 3084 3261 2657 
Q 3669 2231 3669 1497 
Q 3669 778 3244 343 
Q 2819 -91 2113 -91 
Q 1303 -91 875 529 
Q 447 1150 447 2328 
Q 447 3434 972 4092 
Q 1497 4750 2381 4750 
Q 2619 4750 2861 4703 
Q 3103 4656 3366 4563 
z
" transform="scale(0.015625)"/>
       </defs>
       <use xlink:href="#DejaVuSans-30"/>
       <use xlink:href="#DejaVuSans-2e" x="63.623047"/>
       <use xlink:href="#DejaVuSans-36" x="95.410156"/>
      </g>
     </g>
    </g>
    <g id="xtick_5">
     <g id="line2d_5">
      <g>
       <use xlink:href="#m4252dd7f53" x="351.490909" y="320.4" style="stroke: #000000; stroke-width: 0.8"/>
      </g>
     </g>
     <g id="text_5">
      <!-- 0.8 -->
      <g transform="translate(343.539347 334.998438) scale(0.1 -0.1)">
       <defs>
        <path id="DejaVuSans-38" d="M 2034 2216 
Q 1584 2216 1326 1975 
Q 1069 1734 1069 1313 
Q 1069 891 1326 650 
Q 1584 409 2034 409 
Q 2484 409 2743 651 
Q 3003 894 3003 1313 
Q 3003 1734 2745 1975 
Q 2488 2216 2034 2216 
z
M 1403 2484 
Q 997 2584 770 2862 
Q 544 3141 544 3541 
Q 544 4100 942 4425 
Q 1341 4750 2034 4750 
Q 2731 4750 3128 4425 
Q 3525 4100 3525 3541 
Q 3525 3141 3298 2862 
Q 3072 2584 2669 2484 
Q 3125 2378 3379 2068 
Q 3634 1759 3634 1313 
Q 3634 634 3220 271 
Q 2806 -91 2034 -91 
Q 1263 -91 848 271 
Q 434 634 434 1313 
Q 434 1759 690 2068 
Q 947 2378 1403 2484 
z
M 1172 3481 
Q 1172 3119 1398 2916 
Q 1625 2713 2034 2713 
Q 2441 2713 2670 2916 
Q 2900 3119 2900 3481 
Q 2900 3844 2670 4047 
Q 2441 4250 2034 4250 
Q 1625 4250 1398 4047 
Q 1172 3844 1172 3481 
z
" transform="scale(0.015625)"/>
       </defs>
       <use xlink:href="#DejaVuSans-30"/>
       <use xlink:href="#DejaVuSans-2e" x="63.623047"/>
       <use xlink:href="#DejaVuSans-38" x="95.410156"/>
      </g>
     </g>
    </g>
    <g id="xtick_6">
     <g id="line2d_6">
      <g>
       <use xlink:href="#m4252dd7f53" x="412.363636" y="320.4" style="stroke: #000000; stroke-width: 0.8"/>
      </g>
     </g>
     <g id="text_6">
      <!-- 1.0 -->
      <g transform="translate(404.412074 334.998438) scale(0.1 -0.1)">
       <defs>
        <path id="DejaVuSans-31" d="M 794 531 
L 1825 531 
L 1825 4091 
L 703 3866 
L 703 4441 
L 1819 4666 
L 2450 4666 
L 2450 531 
L 3481 531 
L 3481 0 
L 794 0 
L 794 531 
z
" transform="scale(0.015625)"/>
       </defs>
       <use xlink:href="#DejaVuSans-31"/>
       <use xlink:href="#DejaVuSans-2e" x="63.623047"/>
       <use xlink:href="#DejaVuSans-30" x="95.410156"/>
      </g>
     </g>
    </g>
   </g>
   <g id="matplotlib.axis_2">
    <g id="ytick_1">
     <g id="line2d_7">
      <defs>
       <path id="m28159a5d31" d="M 0 0 
L -3.5 0 
" style="stroke: #000000; stroke-width: 0.8"/>
      </defs>
      <g>
       <use xlink:href="#m28159a5d31" x="108" y="320.4" style="stroke: #000000; stroke-width: 0.8"/>
      </g>
     </g>
     <g id="text_7">
      <!-- 0.0 -->
      <g transform="translate(85.096875 324.199219) scale(0.1 -0.1)">
       <use xlink:href="#DejaVuSans-30"/>
       <use xlink:href="#DejaVuSans-2e" x="63.623047"/>
       <use xlink:href="#DejaVuSans-30" x="95.410156"/>
      </g>
     </g>
    </g>
    <g id="ytick_2">
     <g id="line2d_8">
      <g>
       <use xlink:href="#m28159a5d31" x="108" y="264.96" style="stroke: #000000; stroke-width: 0.8"/>
      </g>
     </g>
     <g id="text_8">
      <!-- 0.2 -->
      <g transform="translate(85.096875 268.759219) scale(0.1 -0.1)">
       <use xlink:href="#DejaVuSans-30"/>
       <use xlink:href="#DejaVuSans-2e" x="63.623047"/>
       <use xlink:href="#DejaVuSans-32" x="95.410156"/>
      </g>
     </g>
    </g>
    <g id="ytick_3">
     <g id="line2d_9">
      <g>
       <use xlink:href="#m28159a5d31" x="108" y="209.52" style="stroke: #000000; stroke-width: 0.8"/>
      </g>
     </g>
     <g id="text_9">
      <!-- 0.4 -->
      <g transform="translate(85.096875 213.319219) scale(0.1 -0.1)">
       <use xlink:href="#DejaVuSans-30"/>
       <use xlink:href="#DejaVuSans-2e" x="63.623047"/>
       <use xlink:href="#DejaVuSans-34" x="95.410156"/>
      </g>
     </g>
    </g>
    <g id="ytick_4">
     <g id="line2d_10">
      <g>
       <use xlink:href="#m28159a5d31" x="108" y="154.08" style="stroke: #000000; stroke-width: 0.8"/>
      </g>
     </g>
     <g id="text_10">
      <!-- 0.6 -->
      <g transform="translate(85.096875 157.879219) scale(0.1 -0.1)">
       <use xlink:href="#DejaVuSans-30"/>
       <use xlink:href="#DejaVuSans-2e" x="63.623047"/>
       <use xlink:href="#DejaVuSans-36" x="95.410156"/>
      </g>
     </g>
    </g>
    <g id="ytick_5">
     <g id="line2d_11">
      <g>
       <use xlink:href="#m28159a5d31" x="108" y="98.64" style="stroke: #000000; stroke-width: 0.8"/>
      </g>
     </g>
     <g id="text_11">
      <!-- 0.8 -->
      <g transform="translate(85.096875 102.439219) scale(0.1 -0.1)">
       <use xlink:href="#DejaVuSans-30"/>
       <use xlink:href="#DejaVuSans-2e" x="63.623047"/>
       <use xlink:href="#DejaVuSans-38" x="95.410156"/>
      </g>
     </g>
    </g>
    <g id="ytick_6">
     <g id="line2d_12">
      <g>
       <use xlink:href="#m28159a5d31" x="108" y="43.2" style="stroke: #000000; stroke-width: 0.8"/>
      </g>
     </g>
     <g id="text_12">
      <!-- 1.0 -->
      <g transform="translate(85.096875 46.999219) scale(0.1 -0.1)">
       <use xlink:href="#DejaVuSans-31"/>
       <use xlink:href="#DejaVuSans-2e" x="63.623047"/>
       <use xlink:href="#DejaVuSans-30" x="95.410156"/>
      </g>
     </g>
    </g>
   </g>
   <g id="line2d_13">
    <path d="M 168.872727 264.96 
L 160.235674 195.57966 
L 175.772872 163.631348 
L 259.61388 212.743808 
L 325.83526 207.782223 
L 392.528122 145.790914 
L 351.490909 98.64 
" clip-path="url(#pbfdeb32a0e)" style="fill: none; stroke-dasharray: 5.55,2.4; stroke-dashoffset: 0; stroke: #666666; stroke-width: 1.5"/>
    <defs>
     <path id="m061d0b7ac4" d="M -3 3 
L 3 -3 
M -3 -3 
L 3 3 
" style="stroke: #204a87; stroke-width: 2"/>
    </defs>
    <g clip-path="url(#pbfdeb32a0e)">
     <use xlink:href="#m061d0b7ac4" x="168.872727" y="264.96" style="fill: #666666; stroke: #204a87; stroke-width: 2"/>
     <use xlink:href="#m061d0b7ac4" x="160.235674" y="195.57966" style="fill: #666666; stroke: #204a87; stroke-width: 2"/>
     <use xlink:href="#m061d0b7ac4" x="175.772872" y="163.631348" style="fill: #666666; stroke: #204a87; stroke-width: 2"/>
     <use xlink:href="#m061d0b7ac4" x="259.61388" y="212.743808" style="fill: #666666; stroke: #204a87; stroke-width: 2"/>
     <use xlink:href="#m061d0b7ac4" x="325.83526" y="207.782223" style="fill: #666666; stroke: #204a87; stroke-width: 2"/>
     <use xlink:href="#m061d0b7ac4" x="392.528122" y="145.790914" style="fill: #666666; stroke: #204a87; stroke-width: 2"/>
     <use xlink:href="#m061d0b7ac4" x="351.490909" y="98.64" style="fill: #666666; stroke: #204a87; stroke-width: 2"/>
    </g>
   </g>
   <g id="line2d_14">
    <path d="M 168.872727 264.96 
L 167.859475 255.878246 
L 167.177982 247.817069 
L 166.753938 240.166024 
L 166.592713 233.436671 
L 166.65729 227.076087 
L 166.949508 221.091559 
L 167.422885 215.907459 
L 168.09324 211.055725 
L 168.882007 206.905174 
L 169.838619 203.043134 
L 170.964189 199.474021 
L 172.134989 196.48728 
L 173.447181 193.749592 
L 174.901602 191.264276 
L 176.332879 189.246009 
L 177.880648 187.437268 
L 179.545521 185.840469 
L 181.328106 184.458032 
L 183.229015 183.292373 
L 185.018538 182.440175 
L 186.90246 181.762867 
L 189.135244 181.212061 
L 191.488656 180.887168 
L 193.963305 180.790607 
L 196.559801 180.924796 
L 199.278754 181.292154 
L 202.120774 181.895097 
L 205.086471 182.736045 
L 208.527486 183.952514 
L 212.122778 185.469116 
L 215.873184 187.289171 
L 220.178787 189.645676 
L 226.920525 193.435156 
L 232.310469 196.186549 
L 237.560393 198.61145 
L 242.677892 200.719899 
L 247.670559 202.521937 
L 252.201468 203.929671 
L 256.637367 205.0899 
L 260.984337 206.010663 
L 265.248457 206.699999 
L 269.435806 207.165947 
L 273.866377 207.427134 
L 278.222556 207.448606 
L 282.511937 207.240406 
L 286.742113 206.812574 
L 290.920678 206.17515 
L 295.349066 205.27102 
L 299.736261 204.150162 
L 304.381057 202.729613 
L 309.289122 200.982253 
L 314.470358 198.884398 
L 319.644916 196.550821 
L 324.783964 193.989935 
L 329.566306 191.366555 
L 334.242675 188.548023 
L 338.514828 185.720322 
L 342.631038 182.726099 
L 346.321593 179.770514 
L 349.823841 176.673811 
L 352.900834 173.658471 
L 355.772029 170.52447 
L 358.236242 167.509879 
L 360.489479 164.396401 
L 362.368174 161.436079 
L 364.040653 158.394202 
L 365.494219 155.272069 
L 366.623503 152.340719 
L 367.548392 149.344022 
L 368.259106 146.282977 
L 368.745867 143.158584 
L 368.998895 139.971843 
L 369.017865 137.021543 
L 368.828237 134.021294 
L 368.422666 130.971845 
L 367.793802 127.873949 
L 366.934299 124.728356 
L 365.836809 121.535818 
L 364.493985 118.297086 
L 362.898481 115.012911 
L 361.042947 111.684043 
L 358.920037 108.311235 
L 356.522404 104.895237 
L 353.8427 101.4368 
L 351.490909 98.64 
L 351.490909 98.64 
" clip-path="url(#pbfdeb32a0e)" style="fill: none; stroke: #204a87; stroke-width: 1.5; stroke-linecap: square"/>
   </g>
   <g id="patch_3">
    <path d="M 108 320.4 
L 108 43.2 
" style="fill: none; stroke: #000000; stroke-width: 0.8; stroke-linejoin: miter; stroke-linecap: square"/>
   </g>
   <g id="patch_4">
    <path d="M 412.363636 320.4 
L 412.363636 43.2 
" style="fill: none; stroke: #000000; stroke-width: 0.8; stroke-linejoin: miter; stroke-linecap: square"/>
   </g>
   <g id="patch_5">
    <path d="M 108 320.4 
L 412.363636 320.4 
" style="fill: none; stroke: #000000; stroke-width: 0.8; stroke-linejoin: miter; stroke-linecap: square"/>
   </g>
   <g id="patch_6">
    <path d="M 108 43.2 
L 412.363636 43.2 
" style="fill: none; stroke: #000000; stroke-width: 0.8; stroke-linejoin: miter; stroke-linecap: square"/>
   </g>
   <g id="text_13">
    <!-- Bézier curve -->
    <g transform="translate(222.680881 37.2) scale(0.12 -0.12)">
     <defs>
      <path id="DejaVuSans-42" d="M 1259 2228 
L 1259 519 
L 2272 519 
Q 2781 519 3026 730 
Q 3272 941 3272 1375 
Q 3272 1813 3026 2020 
Q 2781 2228 2272 2228 
L 1259 2228 
z
M 1259 4147 
L 1259 2741 
L 2194 2741 
Q 2656 2741 2882 2914 
Q 3109 3088 3109 3444 
Q 3109 3797 2882 3972 
Q 2656 4147 2194 4147 
L 1259 4147 
z
M 628 4666 
L 2241 4666 
Q 2963 4666 3353 4366 
Q 3744 4066 3744 3513 
Q 3744 3084 3544 2831 
Q 3344 2578 2956 2516 
Q 3422 2416 3680 2098 
Q 3938 1781 3938 1306 
Q 3938 681 3513 340 
Q 3088 0 2303 0 
L 628 0 
L 628 4666 
z
" transform="scale(0.015625)"/>
      <path id="DejaVuSans-e9" d="M 3597 1894 
L 3597 1613 
L 953 1613 
Q 991 1019 1311 708 
Q 1631 397 2203 397 
Q 2534 397 2845 478 
Q 3156 559 3463 722 
L 3463 178 
Q 3153 47 2828 -22 
Q 2503 -91 2169 -91 
Q 1331 -91 842 396 
Q 353 884 353 1716 
Q 353 2575 817 3079 
Q 1281 3584 2069 3584 
Q 2775 3584 3186 3129 
Q 3597 2675 3597 1894 
z
M 3022 2063 
Q 3016 2534 2758 2815 
Q 2500 3097 2075 3097 
Q 1594 3097 1305 2825 
Q 1016 2553 972 2059 
L 3022 2063 
z
M 2466 5119 
L 3088 5119 
L 2070 3944 
L 1591 3944 
L 2466 5119 
z
" transform="scale(0.015625)"/>
      <path id="DejaVuSans-7a" d="M 353 3500 
L 3084 3500 
L 3084 2975 
L 922 459 
L 3084 459 
L 3084 0 
L 275 0 
L 275 525 
L 2438 3041 
L 353 3041 
L 353 3500 
z
" transform="scale(0.015625)"/>
      <path id="DejaVuSans-69" d="M 603 3500 
L 1178 3500 
L 1178 0 
L 603 0 
L 603 3500 
z
M 603 4863 
L 1178 4863 
L 1178 4134 
L 603 4134 
L 603 4863 
z
" transform="scale(0.015625)"/>
      <path id="DejaVuSans-65" d="M 3597 1894 
L 3597 1613 
L 953 1613 
Q 991 1019 1311 708 
Q 1631 397 2203 397 
Q 2534 397 2845 478 
Q 3156 559 3463 722 
L 3463 178 
Q 3153 47 2828 -22 
Q 2503 -91 2169 -91 
Q 1331 -91 842 396 
Q 353 884 353 1716 
Q 353 2575 817 3079 
Q 1281 3584 2069 3584 
Q 2775 3584 3186 3129 
Q 3597 2675 3597 1894 
z
M 3022 2063 
Q 3016 2534 2758 2815 
Q 2500 3097 2075 3097 
Q 1594 3097 1305 2825 
Q 1016 2553 972 2059 
L 3022 2063 
z
" transform="scale(0.015625)"/>
      <path id="DejaVuSans-72" d="M 2631 2963 
Q 2534 3019 2420 3045 
Q 2306 3072 2169 3072 
Q 1681 3072 1420 2755 
Q 1159 2438 1159 1844 
L 1159 0 
L 581 0 
L 581 3500 
L 1159 3500 
L 1159 2956 
Q 1341 3275 1631 3429 
Q 1922 3584 2338 3584 
Q 2397 3584 2469 3576 
Q 2541 3569 2628 3553 
L 2631 2963 
z
" transform="scale(0.015625)"/>
      <path id="DejaVuSans-20" transform="scale(0.015625)"/>
      <path id="DejaVuSans-63" d="M 3122 3366 
L 3122 2828 
Q 2878 2963 2633 3030 
Q 2388 3097 2138 3097 
Q 1578 3097 1268 2742 
Q 959 2388 959 1747 
Q 959 1106 1268 751 
Q 1578 397 2138 397 
Q 2388 397 2633 464 
Q 2878 531 3122 666 
L 3122 134 
Q 2881 22 2623 -34 
Q 2366 -91 2075 -91 
Q 1284 -91 818 406 
Q 353 903 353 1747 
Q 353 2603 823 3093 
Q 1294 3584 2113 3584 
Q 2378 3584 2631 3529 
Q 2884 3475 3122 3366 
z
" transform="scale(0.015625)"/>
      <path id="DejaVuSans-75" d="M 544 1381 
L 544 3500 
L 1119 3500 
L 1119 1403 
Q 1119 906 1312 657 
Q 1506 409 1894 409 
Q 2359 409 2629 706 
Q 2900 1003 2900 1516 
L 2900 3500 
L 3475 3500 
L 3475 0 
L 2900 0 
L 2900 538 
Q 2691 219 2414 64 
Q 2138 -91 1772 -91 
Q 1169 -91 856 284 
Q 544 659 544 1381 
z
M 1991 3584 
L 1991 3584 
z
" transform="scale(0.015625)"/>
      <path id="DejaVuSans-76" d="M 191 3500 
L 800 3500 
L 1894 563 
L 2988 3500 
L 3597 3500 
L 2284 0 
L 1503 0 
L 191 3500 
z
" transform="scale(0.015625)"/>
     </defs>
     <use xlink:href="#DejaVuSans-42"/>
     <use xlink:href="#DejaVuSans-e9" x="68.603516"/>
     <use xlink:href="#DejaVuSans-7a" x="130.126953"/>
     <use xlink:href="#DejaVuSans-69" x="182.617188"/>
     <use xlink:href="#DejaVuSans-65" x="210.400391"/>
     <use xlink:href="#DejaVuSans-72" x="271.923828"/>
     <use xlink:href="#DejaVuSans-20" x="313.037109"/>
     <use xlink:href="#DejaVuSans-63" x="344.824219"/>
     <use xlink:href="#DejaVuSans-75" x="399.804688"/>
     <use xlink:href="#DejaVuSans-72" x="463.183594"/>
     <use xlink:href="#DejaVuSans-76" x="504.296875"/>
     <use xlink:href="#DejaVuSans-65" x="563.476562"/>
    </g>
   </g>
  </g>
  <g id="axes_2">
   <g id="patch_7">
    <path d="M 473.236364 320.4 
L 777.6 320.4 
L 777.6 43.2 
L 473.236364 43.2 
z
" style="fill: #ffffff"/>
   </g>
   <g id="matplotlib.axis_3">
    <g id="xtick_7">
     <g id="line2d_15">
      <g>
       <use xlink:href="#m4252dd7f53" x="473.236364" y="320.4" style="stroke: #000000; stroke-width: 0.8"/>
      </g>
     </g>
     <g id="text_14">
      <!-- 0.0 -->
      <g transform="translate(465.284801 334.998438) scale(0.1 -0.1)">
       <use xlink:href="#DejaVuSans-30"/>
       <use xlink:href="#DejaVuSans-2e" x="63.623047"/>
       <use xlink:href="#DejaVuSans-30" x="95.410156"/>
      </g>
     </g>
    </g>
    <g id="xtick_8">
     <g id="line2d_16">
      <g>
       <use xlink:href="#m4252dd7f53" x="534.109091" y="320.4" style="stroke: #000000; stroke-width: 0.8"/>
      </g>
     </g>
     <g id="text_15">
      <!-- 0.2 -->
      <g transform="translate(526.157528 334.998438) scale(0.1 -0.1)">
       <use xlink:href="#DejaVuSans-30"/>
       <use xlink:href="#DejaVuSans-2e" x="63.623047"/>
       <use xlink:href="#DejaVuSans-32" x="95.410156"/>
      </g>
     </g>
    </g>
    <g id="xtick_9">
     <g id="line2d_17">
      <g>
       <use xlink:href="#m4252dd7f53" x="594.981818" y="320.4" style="stroke: #000000; stroke-width: 0.8"/>
      </g>
     </g>
     <g id="text_16">
      <!-- 0.4 -->
      <g transform="translate(587.030256 334.998438) scale(0.1 -0.1)">
       <use xlink:href="#DejaVuSans-30"/>
       <use xlink:href="#DejaVuSans-2e" x="63.623047"/>
       <use xlink:href="#DejaVuSans-34" x="95.410156"/>
      </g>
     </g>
    </g>
    <g id="xtick_10">
     <g id="line2d_18">
      <g>
       <use xlink:href="#m4252dd7f53" x="655.854545" y="320.4" style="stroke: #000000; stroke-width: 0.8"/>
      </g>
     </g>
     <g id="text_17">
      <!-- 0.6 -->
      <g transform="translate(647.902983 334.998438) scale(0.1 -0.1)">
       <use xlink:href="#DejaVuSans-30"/>
       <use xlink:href="#DejaVuSans-2e" x="63.623047"/>
       <use xlink:href="#DejaVuSans-36" x="95.410156"/>
      </g>
     </g>
    </g>
    <g id="xtick_11">
     <g id="line2d_19">
      <g>
       <use xlink:href="#m4252dd7f53" x="716.727273" y="320.4" style="stroke: #000000; stroke-width: 0.8"/>
      </g>
     </g>
     <g id="text_18">
      <!-- 0.8 -->
      <g transform="translate(708.77571 334.998438) scale(0.1 -0.1)">
       <use xlink:href="#DejaVuSans-30"/>
       <use xlink:href="#DejaVuSans-2e" x="63.623047"/>
       <use xlink:href="#DejaVuSans-38" x="95.410156"/>
      </g>
     </g>
    </g>
    <g id="xtick_12">
     <g id="line2d_20">
      <g>
       <use xlink:href="#m4252dd7f53" x="777.6" y="320.4" style="stroke: #000000; stroke-width: 0.8"/>
      </g>
     </g>
     <g id="text_19">
      <!-- 1.0 -->
      <g transform="translate(769.648437 334.998438) scale(0.1 -0.1)">
       <use xlink:href="#DejaVuSans-31"/>
       <use xlink:href="#DejaVuSans-2e" x="63.623047"/>
       <use xlink:href="#DejaVuSans-30" x="95.410156"/>
      </g>
     </g>
    </g>
   </g>
   <g id="matplotlib.axis_4">
    <g id="ytick_7">
     <g id="line2d_21">
      <g>
       <use xlink:href="#m28159a5d31" x="473.236364" y="320.4" style="stroke: #000000; stroke-width: 0.8"/>
      </g>
     </g>
     <g id="text_20">
      <!-- 0.0 -->
      <g transform="translate(450.333239 324.199219) scale(0.1 -0.1)">
       <use xlink:href="#DejaVuSans-30"/>
       <use xlink:href="#DejaVuSans-2e" x="63.623047"/>
       <use xlink:href="#DejaVuSans-30" x="95.410156"/>
      </g>
     </g>
    </g>
    <g id="ytick_8">
     <g id="line2d_22">
      <g>
       <use xlink:href="#m28159a5d31" x="473.236364" y="264.96" style="stroke: #000000; stroke-width: 0.8"/>
      </g>
     </g>
     <g id="text_21">
      <!-- 0.2 -->
      <g transform="translate(450.333239 268.759219) scale(0.1 -0.1)">
       <use xlink:href="#DejaVuSans-30"/>
       <use xlink:href="#DejaVuSans-2e" x="63.623047"/>
       <use xlink:href="#DejaVuSans-32" x="95.410156"/>
      </g>
     </g>
    </g>
    <g id="ytick_9">
     <g id="line2d_23">
      <g>
       <use xlink:href="#m28159a5d31" x="473.236364" y="209.52" style="stroke: #000000; stroke-width: 0.8"/>
      </g>
     </g>
     <g id="text_22">
      <!-- 0.4 -->
      <g transform="translate(450.333239 213.319219) scale(0.1 -0.1)">
       <use xlink:href="#DejaVuSans-30"/>
       <use xlink:href="#DejaVuSans-2e" x="63.623047"/>
       <use xlink:href="#DejaVuSans-34" x="95.410156"/>
      </g>
     </g>
    </g>
    <g id="ytick_10">
     <g id="line2d_24">
      <g>
       <use xlink:href="#m28159a5d31" x="473.236364" y="154.08" style="stroke: #000000; stroke-width: 0.8"/>
      </g>
     </g>
     <g id="text_23">
      <!-- 0.6 -->
      <g transform="translate(450.333239 157.879219) scale(0.1 -0.1)">
       <use xlink:href="#DejaVuSans-30"/>
       <use xlink:href="#DejaVuSans-2e" x="63.623047"/>
       <use xlink:href="#DejaVuSans-36" x="95.410156"/>
      </g>
     </g>
    </g>
    <g id="ytick_11">
     <g id="line2d_25">
      <g>
       <use xlink:href="#m28159a5d31" x="473.236364" y="98.64" style="stroke: #000000; stroke-width: 0.8"/>
      </g>
     </g>
     <g id="text_24">
      <!-- 0.8 -->
      <g transform="translate(450.333239 102.439219) scale(0.1 -0.1)">
       <use xlink:href="#DejaVuSans-30"/>
       <use xlink:href="#DejaVuSans-2e" x="63.623047"/>
       <use xlink:href="#DejaVuSans-38" x="95.410156"/>
      </g>
     </g>
    </g>
    <g id="ytick_12">
     <g id="line2d_26">
      <g>
       <use xlink:href="#m28159a5d31" x="473.236364" y="43.2" style="stroke: #000000; stroke-width: 0.8"/>
      </g>
     </g>
     <g id="text_25">
      <!-- 1.0 -->
      <g transform="translate(450.333239 46.999219) scale(0.1 -0.1)">
       <use xlink:href="#DejaVuSans-31"/>
       <use xlink:href="#DejaVuSans-2e" x="63.623047"/>
       <use xlink:href="#DejaVuSans-30" x="95.410156"/>
      </g>
     </g>
    </g>
   </g>
   <g id="line2d_27">
    <path d="M 473.236364 43.2 
L 476.493173 69.587824 
L 479.749982 94.245504 
L 483.006792 117.231704 
L 486.263601 138.605088 
L 489.52041 158.42432 
L 492.481146 175.142525 
L 495.441882 190.668865 
L 498.402618 205.047416 
L 501.363353 218.322253 
L 504.324089 230.537451 
L 507.284825 241.737086 
L 509.949487 250.984879 
L 512.614149 259.477898 
L 515.278811 267.248274 
L 517.943474 274.328137 
L 520.608136 280.749618 
L 523.272798 286.544849 
L 525.641387 291.196398 
L 528.009975 295.401087 
L 530.378564 299.18148 
L 532.747152 302.560146 
L 535.115741 305.559649 
L 537.48433 308.202558 
L 539.852918 310.511437 
L 542.221507 312.508855 
L 544.590096 314.217378 
L 546.958684 315.659571 
L 549.327273 316.858002 
L 551.991935 317.942963 
L 554.656597 318.780104 
L 557.617333 319.458687 
L 560.874142 319.950177 
L 564.427025 320.248634 
L 568.868129 320.385942 
L 580.414998 320.4 
L 777.6 320.4 
L 777.6 320.4 
" clip-path="url(#p3f6f8795b9)" style="fill: none; stroke: #1f77b4; stroke-width: 1.5; stroke-linecap: square"/>
   </g>
   <g id="line2d_28">
    <path d="M 473.236364 320.4 
L 475.604952 301.500354 
L 477.973541 284.425301 
L 480.342129 269.107142 
L 482.414644 257.091734 
L 484.48716 246.324262 
L 486.559675 236.759372 
L 488.63219 228.351711 
L 490.408631 222.031825 
L 492.185073 216.500267 
L 493.961514 211.728475 
L 495.441882 208.311753 
L 496.92225 205.386285 
L 498.402618 202.935542 
L 499.882985 200.942996 
L 501.06728 199.667754 
L 502.251574 198.666717 
L 503.435868 197.931424 
L 504.620163 197.453411 
L 505.804457 197.224216 
L 506.988751 197.235376 
L 508.173046 197.47843 
L 509.35734 197.944915 
L 510.541634 198.626368 
L 512.022002 199.767591 
L 513.50237 201.214951 
L 514.982738 202.95192 
L 516.759179 205.395294 
L 518.535621 208.203344 
L 520.608136 211.902208 
L 522.976724 216.631492 
L 525.641387 222.511078 
L 528.602122 229.625258 
L 532.155005 238.789628 
L 536.892183 251.698218 
L 547.550831 280.983092 
L 551.103714 290.006334 
L 554.06445 296.962482 
L 556.729112 302.668416 
L 559.097701 307.218351 
L 561.170216 310.74099 
L 562.946657 313.383657 
L 564.723099 315.648417 
L 566.203467 317.226435 
L 567.683834 318.505655 
L 569.164202 319.469551 
L 570.348497 320.002526 
L 571.532791 320.314653 
L 572.717085 320.4 
L 777.6 320.4 
L 777.6 320.4 
" clip-path="url(#p3f6f8795b9)" style="fill: none; stroke: #ff7f0e; stroke-width: 1.5; stroke-linecap: square"/>
   </g>
   <g id="line2d_29">
    <path d="M 473.236364 320.4 
L 474.420658 320.282924 
L 475.604952 319.936466 
L 476.789247 319.367782 
L 477.973541 318.584024 
L 479.453909 317.312782 
L 480.934277 315.730643 
L 482.414644 313.851581 
L 484.191086 311.224444 
L 485.967527 308.214008 
L 488.040042 304.249602 
L 490.408631 299.169454 
L 492.77722 293.558138 
L 495.441882 286.681761 
L 498.402618 278.436973 
L 501.955501 267.85596 
L 506.396604 253.854566 
L 513.50237 230.550357 
L 520.608136 207.488273 
L 524.753166 194.761771 
L 528.306049 184.570001 
L 531.266785 176.729764 
L 533.931447 170.279805 
L 536.300035 165.097092 
L 538.37255 161.034256 
L 540.445065 157.452159 
L 542.221507 154.793485 
L 543.997948 152.540326 
L 545.478316 150.989884 
L 546.958684 149.751792 
L 548.439052 148.840026 
L 549.623346 148.354957 
L 550.807641 148.094835 
L 551.991935 148.066815 
L 553.176229 148.27805 
L 554.360524 148.735695 
L 555.544818 149.446907 
L 556.729112 150.418838 
L 557.913406 151.658644 
L 559.097701 153.173481 
L 560.578069 155.464686 
L 562.058437 158.21078 
L 563.538804 161.425735 
L 565.019172 165.123526 
L 566.795614 170.217894 
L 568.572055 176.051815 
L 570.348497 182.649439 
L 572.124938 190.03491 
L 576.269968 207.915335 
L 579.230704 219.651473 
L 582.19144 230.541501 
L 585.152175 240.617075 
L 588.112911 249.909849 
L 591.073647 258.451478 
L 594.034383 266.273618 
L 596.699045 272.724544 
L 599.363707 278.641402 
L 602.028369 284.047267 
L 604.693031 288.965216 
L 607.357694 293.418327 
L 610.022356 297.429675 
L 612.687018 301.022338 
L 615.35168 304.219392 
L 618.016342 307.043914 
L 620.681005 309.51898 
L 623.345667 311.667667 
L 626.010329 313.513051 
L 628.674991 315.07821 
L 631.339653 316.38622 
L 634.004316 317.460158 
L 636.965051 318.40696 
L 639.925787 319.12493 
L 643.182596 319.688174 
L 646.735479 320.080025 
L 650.880509 320.31467 
L 656.801981 320.399219 
L 747.696569 320.4 
L 777.6 320.4 
L 777.6 320.4 
" clip-path="url(#p3f6f8795b9)" style="fill: none; stroke: #2ca02c; stroke-width: 1.5; stroke-linecap: square"/>
   </g>
   <g id="line2d_30">
    <path d="M 473.236364 320.4 
L 482.118571 320.293608 
L 486.855748 320.016452 
L 491.000778 319.548862 
L 494.553661 318.929233 
L 497.81047 318.1469 
L 501.06728 317.127122 
L 504.028016 315.967525 
L 506.988751 314.562044 
L 509.949487 312.887036 
L 512.614149 311.129543 
L 515.278811 309.117346 
L 517.943474 306.833211 
L 520.608136 304.259901 
L 523.272798 301.380182 
L 525.93746 298.176818 
L 528.602122 294.632572 
L 531.266785 290.730211 
L 533.931447 286.452498 
L 536.596109 281.782197 
L 539.556845 276.111569 
L 542.51758 269.911343 
L 545.478316 263.157878 
L 548.439052 255.827531 
L 551.399788 247.896658 
L 554.360524 239.341618 
L 557.321259 230.138767 
L 560.578069 219.239191 
L 563.834878 207.495689 
L 567.091687 194.876792 
L 570.348497 181.35103 
L 576.269968 156.32721 
L 578.342483 148.917104 
L 580.414998 142.293278 
L 582.487513 136.430967 
L 584.560028 131.305409 
L 586.33647 127.479697 
L 588.112911 124.161485 
L 589.889353 121.335178 
L 591.369721 119.344433 
L 592.850088 117.675435 
L 594.330456 116.31916 
L 595.810824 115.266582 
L 597.291192 114.508677 
L 598.77156 114.036422 
L 600.251928 113.840791 
L 601.732296 113.91276 
L 603.212664 114.243303 
L 604.693031 114.823398 
L 606.173399 115.644019 
L 607.653767 116.696141 
L 609.430209 118.251564 
L 611.20665 120.111759 
L 613.279165 122.646382 
L 615.35168 125.549844 
L 617.720269 129.287962 
L 620.088857 133.438523 
L 622.75352 138.554876 
L 625.714255 144.733048 
L 628.971065 152.045445 
L 632.820021 161.257208 
L 637.557198 173.218891 
L 644.959038 192.621742 
L 652.953024 213.404288 
L 657.394128 224.364829 
L 661.243085 233.297216 
L 665.092041 241.65823 
L 668.940998 249.466306 
L 672.789954 256.740361 
L 676.342837 262.99725 
L 679.89572 268.83011 
L 683.448603 274.253821 
L 687.001486 279.283261 
L 690.554369 283.933308 
L 694.107252 288.218839 
L 697.660134 292.154734 
L 701.213017 295.755869 
L 704.7659 299.037125 
L 708.318783 302.013378 
L 711.871666 304.699506 
L 715.424549 307.110389 
L 718.977432 309.260904 
L 722.530315 311.165929 
L 726.379271 312.969934 
L 730.228228 314.522206 
L 734.077184 315.841663 
L 738.222214 317.023947 
L 742.367244 317.981783 
L 746.808348 318.785811 
L 751.545525 319.422082 
L 756.87485 319.907792 
L 762.796321 320.220624 
L 770.198161 320.377578 
L 777.6 320.4 
L 777.6 320.4 
" clip-path="url(#p3f6f8795b9)" style="fill: none; stroke: #d62728; stroke-width: 1.5; stroke-linecap: square"/>
   </g>
   <g id="line2d_31">
    <path d="M 473.236364 320.4 
L 573.90138 320.31378 
L 575.381747 320.027182 
L 577.158189 319.427062 
L 578.93463 318.558159 
L 580.711072 317.431813 
L 582.487513 316.059366 
L 584.560028 314.162261 
L 586.632543 311.963629 
L 589.001132 309.10479 
L 591.369721 305.902521 
L 594.034383 301.922932 
L 596.995119 297.077844 
L 600.251928 291.294214 
L 603.804811 284.522018 
L 607.949841 276.128638 
L 613.279165 264.779607 
L 624.233888 240.70994 
L 630.451433 227.415219 
L 634.892536 218.426395 
L 638.741493 211.134181 
L 641.998302 205.415202 
L 644.959038 200.637639 
L 647.6237 196.725953 
L 650.288362 193.22165 
L 652.656951 190.479658 
L 654.729466 188.3904 
L 656.801981 186.609327 
L 658.578422 185.341629 
L 660.354864 184.320677 
L 662.131305 183.541637 
L 663.907747 182.997592 
L 665.684188 182.681623 
L 667.46063 182.586812 
L 669.237071 182.706242 
L 671.013513 183.032995 
L 672.789954 183.560152 
L 674.862469 184.419228 
L 676.934984 185.530675 
L 679.007499 186.883508 
L 681.376088 188.711085 
L 683.744676 190.823194 
L 686.409339 193.519005 
L 689.074001 196.530825 
L 692.034736 200.219522 
L 695.291546 204.656177 
L 698.844429 209.900482 
L 702.693385 215.995459 
L 707.134489 223.473003 
L 712.16774 232.393105 
L 718.977432 244.944884 
L 734.077184 272.926872 
L 739.406509 282.242224 
L 743.847612 289.55962 
L 747.696569 295.484461 
L 751.249452 300.545887 
L 754.506261 304.79312 
L 757.466997 308.291534 
L 760.131659 311.117376 
L 762.796321 313.61326 
L 765.16491 315.535947 
L 767.533498 317.163081 
L 769.606013 318.331485 
L 771.678528 319.250066 
L 773.751044 319.907838 
L 775.527485 320.255733 
L 777.303926 320.397024 
L 777.6 320.4 
L 777.6 320.4 
" clip-path="url(#p3f6f8795b9)" style="fill: none; stroke: #9467bd; stroke-width: 1.5; stroke-linecap: square"/>
   </g>
   <g id="line2d_32">
    <path d="M 473.236364 320.4 
L 583.671808 320.294155 
L 589.593279 320.019322 
L 594.62653 319.572847 
L 599.067634 318.966695 
L 603.212664 318.184233 
L 607.06162 317.24091 
L 610.910577 316.061909 
L 614.463459 314.741693 
L 618.016342 313.177601 
L 621.273152 311.511959 
L 624.529961 309.608104 
L 627.78677 307.450116 
L 631.04358 305.022075 
L 634.300389 302.308058 
L 637.557198 299.292145 
L 640.814008 295.958415 
L 644.070817 292.290947 
L 647.327626 288.273821 
L 650.584436 283.891115 
L 653.841245 279.126909 
L 657.098054 273.965281 
L 660.354864 268.393375 
L 663.907747 261.884829 
L 668.052777 253.832865 
L 673.382101 242.96103 
L 692.922957 202.525835 
L 697.067987 194.727406 
L 700.62087 188.493832 
L 703.87768 183.221538 
L 706.838415 178.851727 
L 709.503077 175.305286 
L 711.871666 172.490114 
L 714.240255 170.018398 
L 716.31277 168.157062 
L 718.385285 166.594614 
L 720.161726 165.505973 
L 721.938168 164.659801 
L 723.714609 164.066656 
L 725.491051 163.737097 
L 726.971418 163.671433 
L 728.451786 163.802259 
L 729.932154 164.135684 
L 731.412522 164.677819 
L 732.89289 165.434775 
L 734.373258 166.412663 
L 736.149699 167.88636 
L 737.926141 169.697556 
L 739.702582 171.85681 
L 741.479024 174.374681 
L 743.255465 177.261727 
L 745.031907 180.528509 
L 747.104422 184.833782 
L 749.176937 189.687056 
L 751.249452 195.105097 
L 753.321967 201.104672 
L 755.690555 208.694922 
L 758.059144 217.091655 
L 760.427733 226.3199 
L 762.796321 236.404686 
L 765.460983 248.805068 
L 768.125646 262.356823 
L 770.790308 277.095586 
L 773.45497 293.056995 
L 776.119632 310.276686 
L 777.6 320.4 
L 777.6 320.4 
" clip-path="url(#p3f6f8795b9)" style="fill: none; stroke: #8c564b; stroke-width: 1.5; stroke-linecap: square"/>
   </g>
   <g id="line2d_33">
    <path d="M 473.236364 320.4 
L 666.868482 320.299551 
L 671.60566 320.020643 
L 675.454616 319.584201 
L 679.007499 318.962155 
L 682.264308 318.168447 
L 685.225044 317.231969 
L 688.18578 316.064485 
L 691.146516 314.640529 
L 693.811178 313.118637 
L 696.47584 311.349809 
L 699.140502 309.315481 
L 701.805164 306.997089 
L 704.469827 304.376066 
L 707.134489 301.433849 
L 709.799151 298.151872 
L 712.463813 294.511571 
L 715.128475 290.49438 
L 717.793138 286.081735 
L 720.4578 281.25507 
L 723.122462 275.995822 
L 726.083198 269.62228 
L 729.043933 262.666299 
L 732.004669 255.102411 
L 734.965405 246.90515 
L 737.926141 238.04905 
L 740.886877 228.508644 
L 743.847612 218.258467 
L 747.104422 206.133092 
L 750.361231 193.084184 
L 753.61804 179.077847 
L 756.87485 164.080186 
L 760.131659 148.057304 
L 763.388468 130.975307 
L 766.941351 111.092655 
L 770.494234 89.865224 
L 774.047117 67.249007 
L 777.6 43.2 
L 777.6 43.2 
" clip-path="url(#p3f6f8795b9)" style="fill: none; stroke: #e377c2; stroke-width: 1.5; stroke-linecap: square"/>
   </g>
   <g id="line2d_34">
    <path d="M 572.544 320.4 
L 572.544 43.2 
" clip-path="url(#p3f6f8795b9)" style="fill: none; stroke-dasharray: 1.5,2.475; stroke-dashoffset: 0; stroke: #000000; stroke-width: 1.5"/>
   </g>
   <g id="line2d_35">
    <path d="M 658.368 320.4 
L 658.368 43.2 
" clip-path="url(#p3f6f8795b9)" style="fill: none; stroke-dasharray: 1.5,2.475; stroke-dashoffset: 0; stroke: #000000; stroke-width: 1.5"/>
   </g>
   <g id="patch_8">
    <path d="M 473.236364 320.4 
L 473.236364 43.2 
" style="fill: none; stroke: #000000; stroke-width: 0.8; stroke-linejoin: miter; stroke-linecap: square"/>
   </g>
   <g id="patch_9">
    <path d="M 777.6 320.4 
L 777.6 43.2 
" style="fill: none; stroke: #000000; stroke-width: 0.8; stroke-linejoin: miter; stroke-linecap: square"/>
   </g>
   <g id="patch_10">
    <path d="M 473.236364 320.4 
L 777.6 320.4 
" style="fill: none; stroke: #000000; stroke-width: 0.8; stroke-linejoin: miter; stroke-linecap: square"/>
   </g>
   <g id="patch_11">
    <path d="M 473.236364 43.2 
L 777.6 43.2 
" style="fill: none; stroke: #000000; stroke-width: 0.8; stroke-linejoin: miter; stroke-linecap: square"/>
   </g>
   <g id="text_26">
    <!-- Bspline basis of degree 3 and 7 control points -->
    <g transform="translate(487.925369 37.2) scale(0.12 -0.12)">
     <defs>
      <path id="DejaVuSans-73" d="M 2834 3397 
L 2834 2853 
Q 2591 2978 2328 3040 
Q 2066 3103 1784 3103 
Q 1356 3103 1142 2972 
Q 928 2841 928 2578 
Q 928 2378 1081 2264 
Q 1234 2150 1697 2047 
L 1894 2003 
Q 2506 1872 2764 1633 
Q 3022 1394 3022 966 
Q 3022 478 2636 193 
Q 2250 -91 1575 -91 
Q 1294 -91 989 -36 
Q 684 19 347 128 
L 347 722 
Q 666 556 975 473 
Q 1284 391 1588 391 
Q 1994 391 2212 530 
Q 2431 669 2431 922 
Q 2431 1156 2273 1281 
Q 2116 1406 1581 1522 
L 1381 1569 
Q 847 1681 609 1914 
Q 372 2147 372 2553 
Q 372 3047 722 3315 
Q 1072 3584 1716 3584 
Q 2034 3584 2315 3537 
Q 2597 3491 2834 3397 
z
" transform="scale(0.015625)"/>
      <path id="DejaVuSans-70" d="M 1159 525 
L 1159 -1331 
L 581 -1331 
L 581 3500 
L 1159 3500 
L 1159 2969 
Q 1341 3281 1617 3432 
Q 1894 3584 2278 3584 
Q 2916 3584 3314 3078 
Q 3713 2572 3713 1747 
Q 3713 922 3314 415 
Q 2916 -91 2278 -91 
Q 1894 -91 1617 61 
Q 1341 213 1159 525 
z
M 3116 1747 
Q 3116 2381 2855 2742 
Q 2594 3103 2138 3103 
Q 1681 3103 1420 2742 
Q 1159 2381 1159 1747 
Q 1159 1113 1420 752 
Q 1681 391 2138 391 
Q 2594 391 2855 752 
Q 3116 1113 3116 1747 
z
" transform="scale(0.015625)"/>
      <path id="DejaVuSans-6c" d="M 603 4863 
L 1178 4863 
L 1178 0 
L 603 0 
L 603 4863 
z
" transform="scale(0.015625)"/>
      <path id="DejaVuSans-6e" d="M 3513 2113 
L 3513 0 
L 2938 0 
L 2938 2094 
Q 2938 2591 2744 2837 
Q 2550 3084 2163 3084 
Q 1697 3084 1428 2787 
Q 1159 2491 1159 1978 
L 1159 0 
L 581 0 
L 581 3500 
L 1159 3500 
L 1159 2956 
Q 1366 3272 1645 3428 
Q 1925 3584 2291 3584 
Q 2894 3584 3203 3211 
Q 3513 2838 3513 2113 
z
" transform="scale(0.015625)"/>
      <path id="DejaVuSans-62" d="M 3116 1747 
Q 3116 2381 2855 2742 
Q 2594 3103 2138 3103 
Q 1681 3103 1420 2742 
Q 1159 2381 1159 1747 
Q 1159 1113 1420 752 
Q 1681 391 2138 391 
Q 2594 391 2855 752 
Q 3116 1113 3116 1747 
z
M 1159 2969 
Q 1341 3281 1617 3432 
Q 1894 3584 2278 3584 
Q 2916 3584 3314 3078 
Q 3713 2572 3713 1747 
Q 3713 922 3314 415 
Q 2916 -91 2278 -91 
Q 1894 -91 1617 61 
Q 1341 213 1159 525 
L 1159 0 
L 581 0 
L 581 4863 
L 1159 4863 
L 1159 2969 
z
" transform="scale(0.015625)"/>
      <path id="DejaVuSans-61" d="M 2194 1759 
Q 1497 1759 1228 1600 
Q 959 1441 959 1056 
Q 959 750 1161 570 
Q 1363 391 1709 391 
Q 2188 391 2477 730 
Q 2766 1069 2766 1631 
L 2766 1759 
L 2194 1759 
z
M 3341 1997 
L 3341 0 
L 2766 0 
L 2766 531 
Q 2569 213 2275 61 
Q 1981 -91 1556 -91 
Q 1019 -91 701 211 
Q 384 513 384 1019 
Q 384 1609 779 1909 
Q 1175 2209 1959 2209 
L 2766 2209 
L 2766 2266 
Q 2766 2663 2505 2880 
Q 2244 3097 1772 3097 
Q 1472 3097 1187 3025 
Q 903 2953 641 2809 
L 641 3341 
Q 956 3463 1253 3523 
Q 1550 3584 1831 3584 
Q 2591 3584 2966 3190 
Q 3341 2797 3341 1997 
z
" transform="scale(0.015625)"/>
      <path id="DejaVuSans-6f" d="M 1959 3097 
Q 1497 3097 1228 2736 
Q 959 2375 959 1747 
Q 959 1119 1226 758 
Q 1494 397 1959 397 
Q 2419 397 2687 759 
Q 2956 1122 2956 1747 
Q 2956 2369 2687 2733 
Q 2419 3097 1959 3097 
z
M 1959 3584 
Q 2709 3584 3137 3096 
Q 3566 2609 3566 1747 
Q 3566 888 3137 398 
Q 2709 -91 1959 -91 
Q 1206 -91 779 398 
Q 353 888 353 1747 
Q 353 2609 779 3096 
Q 1206 3584 1959 3584 
z
" transform="scale(0.015625)"/>
      <path id="DejaVuSans-66" d="M 2375 4863 
L 2375 4384 
L 1825 4384 
Q 1516 4384 1395 4259 
Q 1275 4134 1275 3809 
L 1275 3500 
L 2222 3500 
L 2222 3053 
L 1275 3053 
L 1275 0 
L 697 0 
L 697 3053 
L 147 3053 
L 147 3500 
L 697 3500 
L 697 3744 
Q 697 4328 969 4595 
Q 1241 4863 1831 4863 
L 2375 4863 
z
" transform="scale(0.015625)"/>
      <path id="DejaVuSans-64" d="M 2906 2969 
L 2906 4863 
L 3481 4863 
L 3481 0 
L 2906 0 
L 2906 525 
Q 2725 213 2448 61 
Q 2172 -91 1784 -91 
Q 1150 -91 751 415 
Q 353 922 353 1747 
Q 353 2572 751 3078 
Q 1150 3584 1784 3584 
Q 2172 3584 2448 3432 
Q 2725 3281 2906 2969 
z
M 947 1747 
Q 947 1113 1208 752 
Q 1469 391 1925 391 
Q 2381 391 2643 752 
Q 2906 1113 2906 1747 
Q 2906 2381 2643 2742 
Q 2381 3103 1925 3103 
Q 1469 3103 1208 2742 
Q 947 2381 947 1747 
z
" transform="scale(0.015625)"/>
      <path id="DejaVuSans-67" d="M 2906 1791 
Q 2906 2416 2648 2759 
Q 2391 3103 1925 3103 
Q 1463 3103 1205 2759 
Q 947 2416 947 1791 
Q 947 1169 1205 825 
Q 1463 481 1925 481 
Q 2391 481 2648 825 
Q 2906 1169 2906 1791 
z
M 3481 434 
Q 3481 -459 3084 -895 
Q 2688 -1331 1869 -1331 
Q 1566 -1331 1297 -1286 
Q 1028 -1241 775 -1147 
L 775 -588 
Q 1028 -725 1275 -790 
Q 1522 -856 1778 -856 
Q 2344 -856 2625 -561 
Q 2906 -266 2906 331 
L 2906 616 
Q 2728 306 2450 153 
Q 2172 0 1784 0 
Q 1141 0 747 490 
Q 353 981 353 1791 
Q 353 2603 747 3093 
Q 1141 3584 1784 3584 
Q 2172 3584 2450 3431 
Q 2728 3278 2906 2969 
L 2906 3500 
L 3481 3500 
L 3481 434 
z
" transform="scale(0.015625)"/>
      <path id="DejaVuSans-33" d="M 2597 2516 
Q 3050 2419 3304 2112 
Q 3559 1806 3559 1356 
Q 3559 666 3084 287 
Q 2609 -91 1734 -91 
Q 1441 -91 1130 -33 
Q 819 25 488 141 
L 488 750 
Q 750 597 1062 519 
Q 1375 441 1716 441 
Q 2309 441 2620 675 
Q 2931 909 2931 1356 
Q 2931 1769 2642 2001 
Q 2353 2234 1838 2234 
L 1294 2234 
L 1294 2753 
L 1863 2753 
Q 2328 2753 2575 2939 
Q 2822 3125 2822 3475 
Q 2822 3834 2567 4026 
Q 2313 4219 1838 4219 
Q 1578 4219 1281 4162 
Q 984 4106 628 3988 
L 628 4550 
Q 988 4650 1302 4700 
Q 1616 4750 1894 4750 
Q 2613 4750 3031 4423 
Q 3450 4097 3450 3541 
Q 3450 3153 3228 2886 
Q 3006 2619 2597 2516 
z
" transform="scale(0.015625)"/>
      <path id="DejaVuSans-37" d="M 525 4666 
L 3525 4666 
L 3525 4397 
L 1831 0 
L 1172 0 
L 2766 4134 
L 525 4134 
L 525 4666 
z
" transform="scale(0.015625)"/>
      <path id="DejaVuSans-74" d="M 1172 4494 
L 1172 3500 
L 2356 3500 
L 2356 3053 
L 1172 3053 
L 1172 1153 
Q 1172 725 1289 603 
Q 1406 481 1766 481 
L 2356 481 
L 2356 0 
L 1766 0 
Q 1100 0 847 248 
Q 594 497 594 1153 
L 594 3053 
L 172 3053 
L 172 3500 
L 594 3500 
L 594 4494 
L 1172 4494 
z
" transform="scale(0.015625)"/>
     </defs>
     <use xlink:href="#DejaVuSans-42"/>
     <use xlink:href="#DejaVuSans-73" x="68.603516"/>
     <use xlink:href="#DejaVuSans-70" x="120.703125"/>
     <use xlink:href="#DejaVuSans-6c" x="184.179688"/>
     <use xlink:href="#DejaVuSans-69" x="211.962891"/>
     <use xlink:href="#DejaVuSans-6e" x="239.746094"/>
     <use xlink:href="#DejaVuSans-65" x="303.125"/>
     <use xlink:href="#DejaVuSans-20" x="364.648438"/>
     <use xlink:href="#DejaVuSans-62" x="396.435547"/>
     <use xlink:href="#DejaVuSans-61" x="459.912109"/>
     <use xlink:href="#DejaVuSans-73" x="521.191406"/>
     <use xlink:href="#DejaVuSans-69" x="573.291016"/>
     <use xlink:href="#DejaVuSans-73" x="601.074219"/>
     <use xlink:href="#DejaVuSans-20" x="653.173828"/>
     <use xlink:href="#DejaVuSans-6f" x="684.960938"/>
     <use xlink:href="#DejaVuSans-66" x="746.142578"/>
     <use xlink:href="#DejaVuSans-20" x="781.347656"/>
     <use xlink:href="#DejaVuSans-64" x="813.134766"/>
     <use xlink:href="#DejaVuSans-65" x="876.611328"/>
     <use xlink:href="#DejaVuSans-67" x="938.134766"/>
     <use xlink:href="#DejaVuSans-72" x="1001.611328"/>
     <use xlink:href="#DejaVuSans-65" x="1040.474609"/>
     <use xlink:href="#DejaVuSans-65" x="1101.998047"/>
     <use xlink:href="#DejaVuSans-20" x="1163.521484"/>
     <use xlink:href="#DejaVuSans-33" x="1195.308594"/>
     <use xlink:href="#DejaVuSans-20" x="1258.931641"/>
     <use xlink:href="#DejaVuSans-61" x="1290.71875"/>
     <use xlink:href="#DejaVuSans-6e" x="1351.998047"/>
     <use xlink:href="#DejaVuSans-64" x="1415.376953"/>
     <use xlink:href="#DejaVuSans-20" x="1478.853516"/>
     <use xlink:href="#DejaVuSans-37" x="1510.640625"/>
     <use xlink:href="#DejaVuSans-20" x="1574.263672"/>
     <use xlink:href="#DejaVuSans-63" x="1606.050781"/>
     <use xlink:href="#DejaVuSans-6f" x="1661.03125"/>
     <use xlink:href="#DejaVuSans-6e" x="1722.212891"/>
     <use xlink:href="#DejaVuSans-74" x="1785.591797"/>
     <use xlink:href="#DejaVuSans-72" x="1824.800781"/>
     <use xlink:href="#DejaVuSans-6f" x="1863.664062"/>
     <use xlink:href="#DejaVuSans-6c" x="1924.845703"/>
     <use xlink:href="#DejaVuSans-20" x="1952.628906"/>
     <use xlink:href="#DejaVuSans-70" x="1984.416016"/>
     <use xlink:href="#DejaVuSans-6f" x="2047.892578"/>
     <use xlink:href="#DejaVuSans-69" x="2109.074219"/>
     <use xlink:href="#DejaVuSans-6e" x="2136.857422"/>
     <use xlink:href="#DejaVuSans-74" x="2200.236328"/>
     <use xlink:href="#DejaVuSans-73" x="2239.445312"/>
    </g>
   </g>
  </g>
 </g>
 <defs>
  <clipPath id="pbfdeb32a0e">
   <rect x="108" y="43.2" width="304.363636" height="277.2"/>
  </clipPath>
  <clipPath id="p3f6f8795b9">
   <rect x="473.236364" y="43.2" width="304.363636" height="277.2"/>
  </clipPath>
 </defs>
</svg>
